<?xml version="1.0" encoding="utf-8"?>
<!-- Generator: Adobe Illustrator 19.0.0, SVG Export Plug-In . SVG Version: 6.00 Build 0)  -->
<svg version="1.1" id="Layer_1" xmlns="http://www.w3.org/2000/svg" xmlns:xlink="http://www.w3.org/1999/xlink" x="0px" y="0px"
	 width="85px" height="62.4px" viewBox="0 0 85 62.4" style="enable-background:new 0 0 85 62.4;" xml:space="preserve">
<g id="XMLID_83_">
	<path id="XMLID_84_" d="M85,34v-5.7H73.7V17c0-9.4-7.7-17-17-17h0c-4.4,0-8.3,1.7-11.3,4.4c1.4,1.3,2.6,2.8,3.5,4.4
		c2-1.9,4.8-3.1,7.8-3.1C62.9,5.7,68,10.8,68,17v11.3H51V34h17v19.8c0,1.6-1.3,2.8-2.8,2.8H68v0h-5.7v5.7H68h5.7h5.7v-5.7h-5.7v0
		h2.8c-1.6,0-2.8-1.3-2.8-2.8V34H85z"/>
	<path id="XMLID_106_" d="M45.4,56.7h2.8c-1.6,0-2.8-1.3-2.8-2.8V17c0-3-0.8-5.8-2.1-8.2c-0.9-1.7-2.1-3.2-3.5-4.4
		c-3-2.7-7-4.4-11.3-4.4c-9.4,0-17,7.7-17,17v11.3H0V34h11.3v19.8c0,1.6-1.3,2.8-2.8,2.8h2.8v0H5.7v5.7h5.7H17h5.7v-5.7H17v0h2.8
		c-1.6,0-2.8-1.3-2.8-2.8V34h17v-5.7H17V17c0-6.3,5.1-11.3,11.3-11.3c3,0,5.8,1.2,7.8,3.1c2.2,2.1,3.5,5,3.5,8.2v36.9
		c0,1.6-1.3,2.8-2.8,2.8h2.8v0H34v5.7h5.7h5.7H51v-5.7L45.4,56.7L45.4,56.7z"/>
</g>
</svg>
