<?xml version="1.0" standalone="no"?>
<!DOCTYPE svg PUBLIC "-//W3C//DTD SVG 20010904//EN"
 "http://www.w3.org/TR/2001/REC-SVG-20010904/DTD/svg10.dtd">
<svg version="1.0" xmlns="http://www.w3.org/2000/svg"
 width="1360.000000pt" height="1360.000000pt" viewBox="0 0 1360.000000 1360.000000"
 preserveAspectRatio="xMidYMid meet">
<metadata>
Created by potrace 1.11, written by Peter Selinger 2001-2013
</metadata>
<g transform="translate(0.000000,1360.000000) scale(0.100000,-0.100000)"
fill="#000000" stroke="none">
<path d="M4390 11786 c-3 -2 -41 -7 -85 -10 -44 -3 -91 -8 -105 -10 -14 -3
-43 -7 -65 -11 -259 -37 -548 -131 -800 -260 -85 -43 -136 -72 -260 -148 -19
-12 -29 -20 -58 -43 -7 -6 -23 -17 -36 -23 -12 -7 -30 -19 -39 -26 -143 -115
-202 -168 -296 -261 -118 -118 -135 -137 -218 -242 -29 -37 -55 -69 -58 -72
-14 -14 -90 -130 -90 -139 0 -5 -4 -11 -8 -13 -20 -8 -148 -247 -220 -408 -23
-53 -72 -187 -77 -213 -2 -9 -7 -22 -10 -27 -19 -30 -88 -335 -101 -445 -19
-157 -30 -406 -21 -468 2 -15 1 -30 -4 -33 -5 -2 -4 -15 0 -27 5 -13 5 -30 0
-39 -6 -10 -6 -19 0 -22 5 -4 6 -18 2 -34 -5 -15 -5 -37 0 -49 5 -13 4 -25 -1
-28 -7 -4 -6 -13 0 -25 7 -13 7 -21 0 -25 -6 -3 -7 -14 -2 -23 6 -15 7 -43 2
-64 -2 -10 -2 -87 0 -90 6 -10 5 -50 -1 -54 -5 -2 -4 -15 0 -27 5 -13 5 -30 0
-39 -6 -10 -6 -19 0 -22 5 -4 6 -18 2 -34 -5 -15 -5 -37 0 -49 5 -13 4 -25 -1
-28 -7 -4 -6 -13 0 -25 7 -13 7 -21 0 -25 -6 -3 -7 -14 -2 -23 6 -15 7 -43 2
-64 -2 -10 -2 -87 0 -90 6 -10 4 -60 -2 -64 -5 -3 -4 -13 1 -22 6 -11 6 -24 0
-35 -6 -9 -6 -17 -1 -17 5 0 6 -20 2 -45 -4 -24 -3 -50 1 -57 4 -6 3 -20 -2
-29 -5 -10 -5 -20 -1 -23 5 -3 6 -26 2 -50 -4 -25 -3 -51 1 -58 4 -6 3 -20 -2
-29 -5 -10 -5 -20 -1 -23 5 -3 6 -26 2 -50 -4 -25 -3 -51 1 -58 4 -6 3 -20 -2
-29 -5 -10 -5 -20 -1 -23 5 -3 6 -26 2 -50 -4 -25 -3 -50 0 -57 4 -6 6 -19 3
-28 -4 -15 -74 -16 -924 -16 l-919 0 0 -457 0 -457 777 0 c428 0 835 0 904 -1
l126 0 0 -1616 c0 -1545 -1 -1619 -19 -1673 -28 -84 -43 -112 -87 -160 -23
-25 -41 -48 -41 -53 0 -4 -5 -8 -10 -8 -6 0 -20 -9 -32 -20 -12 -11 -28 -20
-35 -20 -7 0 -13 -5 -13 -12 0 -6 -3 -8 -7 -5 -3 4 -11 3 -17 -2 -17 -13 -82
-32 -129 -37 -23 -3 -146 -5 -273 -6 l-232 -1 2 -456 1 -455 1348 0 c742 -1
1354 2 1360 6 7 4 10 141 9 435 0 235 -1 437 -1 449 -1 21 -5 21 -238 22 -131
0 -257 3 -281 6 -55 6 -142 34 -163 52 -8 8 -19 14 -22 14 -8 0 -49 34 -80 65
-38 39 -90 129 -108 189 -17 56 -18 143 -19 1673 l0 1613 63 0 c34 0 645 1
1357 3 l1295 2 2 245 c1 135 3 250 3 255 1 11 0 162 -3 315 l-2 95 -1358 0
-1358 -1 4 1006 c3 868 6 1016 20 1085 28 143 34 170 37 170 1 0 4 13 6 29 7
38 79 232 105 279 11 20 17 37 12 37 -4 0 -2 4 5 9 7 4 14 14 16 22 1 8 14 33
29 56 15 24 27 45 27 48 0 3 5 11 10 18 6 7 27 37 48 68 94 141 262 321 377
404 16 11 34 26 41 33 7 6 17 12 22 12 5 0 17 9 27 20 10 11 24 20 32 20 7 0
13 4 13 9 0 5 10 13 23 17 12 3 29 12 37 19 25 21 90 55 105 55 8 0 15 4 15 9
0 5 10 12 23 16 12 4 24 8 27 10 61 27 87 38 95 39 6 1 15 5 22 9 12 8 127 44
158 50 11 2 27 7 35 10 8 4 29 9 45 12 29 6 45 9 118 20 85 14 163 19 292 18
128 0 175 -3 275 -20 19 -3 44 -7 55 -8 11 -1 20 -3 20 -4 0 -2 7 -4 15 -6
157 -34 269 -73 415 -145 102 -50 269 -149 285 -170 3 -4 22 -18 42 -32 21
-13 35 -28 31 -31 -3 -4 -1 -7 6 -7 7 0 18 -6 25 -12 7 -7 30 -29 52 -49 49
-45 142 -145 171 -184 13 -16 37 -48 53 -69 17 -22 47 -67 67 -100 20 -34 40
-63 43 -66 4 -3 13 -22 21 -42 7 -21 17 -38 21 -38 4 0 7 -3 6 -7 0 -5 13 -37
29 -73 34 -72 90 -230 97 -272 3 -15 7 -31 10 -36 3 -5 8 -23 11 -40 3 -18 8
-47 11 -64 10 -58 15 -101 21 -178 7 -81 10 -6075 3 -6125 -2 -16 -8 -35 -12
-40 -4 -6 -9 -23 -12 -37 -2 -15 -16 -46 -30 -70 -78 -131 -211 -213 -357
-222 -33 -2 -62 -6 -66 -9 -3 -4 -13 -2 -22 3 -10 5 -23 5 -30 1 -7 -5 -28 -5
-47 -1 -20 5 -34 4 -34 -2 0 -5 -6 -6 -12 -2 -18 11 -48 12 -48 2 0 -5 -5 -6
-12 -2 -18 11 -78 11 -78 1 0 -6 -5 -6 -12 -1 -16 11 -39 11 -55 1 -7 -5 -13
-4 -13 1 0 5 -10 8 -22 7 -23 -2 -23 -4 -26 -146 -4 -182 -3 -136 -3 -476 l1
-293 1360 0 1360 0 2 358 c2 196 1 402 -2 457 l-5 100 -30 -3 c-16 -1 -36 -2
-42 -2 -7 0 -21 0 -30 0 -10 0 -29 0 -43 1 -14 0 -31 0 -37 0 -30 -2 -39 -2
-65 2 -16 2 -28 0 -28 -6 0 -6 -5 -6 -12 -1 -7 5 -26 8 -43 7 -44 -5 -47 -4
-77 0 -16 2 -28 0 -28 -5 0 -5 -6 -6 -12 -1 -7 4 -29 8 -48 10 -19 1 -54 9
-77 17 -24 8 -43 13 -43 10 0 -3 -13 4 -29 15 -16 12 -34 21 -40 21 -6 0 -11
5 -11 10 0 6 -5 10 -10 10 -16 0 -98 90 -124 137 -13 23 -32 66 -42 95 -18 51
-19 183 -20 3113 -2 1683 -5 3089 -9 3125 -11 125 -19 180 -40 295 -18 93 -25
127 -30 135 -2 4 -7 22 -10 41 -4 19 -8 39 -9 44 -1 6 -5 16 -10 23 -4 7 -9
23 -11 35 -7 56 -108 313 -176 450 -64 128 -172 308 -226 377 -101 131 -147
183 -239 276 -101 102 -311 284 -337 293 -7 2 -14 7 -17 11 -5 6 -74 56 -125
90 -72 48 -346 198 -375 205 -3 1 -21 8 -40 17 -19 8 -53 21 -75 29 -22 8 -43
18 -46 22 -3 5 -9 8 -13 7 -4 -1 -19 2 -34 8 -60 21 -159 51 -184 56 -15 2
-31 7 -36 10 -5 3 -19 7 -33 10 -154 32 -242 48 -284 52 -27 3 -61 8 -75 10
-33 7 -434 16 -440 10z"/>
<path d="M8889 11786 c-2 -2 -38 -7 -79 -10 -198 -18 -403 -62 -585 -126 -33
-11 -61 -21 -62 -20 -2 0 -22 -8 -45 -17 -24 -10 -46 -17 -50 -15 -5 1 -8 -3
-8 -8 0 -6 -7 -10 -15 -10 -16 0 -226 -101 -305 -147 -66 -38 -237 -152 -255
-169 -8 -9 -15 -12 -15 -8 0 4 -11 -5 -25 -20 -14 -15 -25 -24 -25 -20 0 4 -8
-3 -19 -14 -10 -12 -22 -22 -27 -22 -5 0 -24 -16 -43 -35 -19 -19 -37 -35 -41
-35 -4 0 -11 -7 -14 -15 -4 -11 22 -43 77 -99 125 -127 189 -201 292 -339 36
-48 65 -90 65 -92 0 -2 18 -31 40 -64 22 -33 40 -65 40 -71 0 -5 4 -10 8 -10
5 0 13 -9 18 -20 8 -18 12 -17 53 21 65 60 228 179 246 179 8 0 15 4 15 8 0 4
26 21 58 37 31 17 59 33 60 38 2 4 8 7 13 7 5 0 36 13 68 29 33 16 62 26 65
23 4 -3 6 1 6 8 0 7 3 11 6 7 4 -3 23 0 43 8 20 7 45 16 56 21 21 8 35 11 63
18 9 3 17 5 17 6 0 2 14 5 53 14 13 3 31 7 40 10 25 8 83 17 118 20 16 1 34 5
40 7 35 18 450 14 504 -5 8 -2 33 -7 55 -10 22 -3 51 -8 65 -12 14 -3 33 -7
43 -7 9 -1 17 -4 17 -7 0 -3 11 -7 24 -8 21 -1 104 -28 161 -52 11 -4 36 -14
55 -21 31 -11 135 -63 230 -115 19 -10 37 -22 38 -26 2 -5 10 -8 17 -8 7 0 15
-3 17 -7 2 -5 28 -25 58 -46 30 -20 72 -53 93 -72 21 -19 41 -35 44 -35 4 0
49 -44 100 -97 122 -126 262 -311 255 -335 -1 -5 2 -8 7 -8 5 0 31 -44 57 -97
27 -54 51 -100 54 -103 3 -3 6 -9 7 -15 2 -5 21 -62 42 -125 22 -63 43 -130
46 -149 3 -19 8 -38 10 -41 3 -4 7 -25 10 -46 3 -22 11 -66 17 -99 11 -65 20
-295 17 -465 0 -58 0 -118 1 -135 1 -16 2 -34 2 -40 0 -8 -1 -214 -1 -555 0
-8 0 -62 0 -120 0 -58 0 -112 1 -120 0 -8 0 -62 -1 -120 0 -58 0 -112 0 -120
1 -8 0 -62 -1 -120 -1 -58 -1 -109 0 -115 1 -5 2 -39 1 -75 l-1 -66 -1360 1
-1360 0 -1 -180 c-1 -391 2 -719 7 -726 3 -5 532 -8 1177 -8 645 0 1254 0
1355 -1 l182 0 1 -107 c0 -60 0 -115 0 -123 0 -8 1 -134 0 -280 0 -146 0 -272
0 -280 0 -8 0 -62 0 -120 0 -58 0 -112 1 -120 0 -8 0 -62 -1 -120 0 -58 0
-112 0 -120 1 -8 1 -62 0 -120 0 -58 0 -112 0 -120 1 -41 0 -564 -2 -620 0
-36 -1 -72 -1 -80 1 -8 1 -73 1 -145 0 -71 0 -137 0 -145 0 -8 0 -62 0 -120
-1 -58 -1 -112 0 -120 2 -84 -1 -445 -5 -479 -9 -86 -52 -181 -110 -243 -39
-41 -101 -91 -107 -87 -2 2 -11 -2 -19 -8 -23 -19 -98 -44 -153 -50 -27 -3
-147 -5 -265 -5 -118 0 -224 -1 -235 -3 -20 -4 -20 -12 -20 -455 0 -293 3
-450 10 -451 6 -1 621 -2 1368 -2 1351 -2 1357 -2 1358 18 4 75 3 878 -1 885
-3 4 -111 7 -240 7 -211 1 -321 7 -342 20 -5 2 -18 6 -30 8 -56 11 -218 140
-218 174 0 6 -5 11 -12 11 -6 0 -8 3 -5 7 4 3 0 14 -8 23 -9 10 -17 26 -19 36
-3 11 -9 31 -15 47 -6 15 -8 27 -5 27 4 0 2 6 -3 13 -7 8 -10 578 -10 1630 l0
1617 36 0 c20 0 426 1 904 1 l867 1 -2 456 -3 457 -900 0 -900 0 -2 925 c-1
1027 -5 1165 -36 1315 -3 11 -8 40 -12 65 -4 25 -9 52 -11 60 -2 8 -9 38 -15
65 -15 72 -77 268 -110 352 -51 129 -120 276 -132 281 -4 2 -5 8 -1 13 3 5 0
9 -5 9 -6 0 -11 9 -11 19 0 11 -3 21 -7 23 -5 2 -32 44 -62 93 -159 263 -386
519 -648 727 -40 32 -75 58 -78 58 -6 0 -24 14 -56 43 -10 9 -22 17 -25 17 -4
0 -37 20 -73 43 -36 24 -104 64 -151 88 -47 24 -88 49 -92 54 -4 6 -8 6 -8 1
0 -5 -9 -1 -20 9 -11 10 -20 15 -20 11 0 -4 -10 -1 -22 6 -13 7 -25 13 -28 14
-3 0 -23 8 -45 18 -82 35 -127 53 -137 55 -5 1 -32 10 -60 20 -29 10 -73 24
-98 31 -25 7 -56 16 -70 21 -27 9 -191 44 -255 54 -46 7 -77 12 -155 20 -60 7
-455 16 -461 11z"/>
</g>
</svg>
